Coordinates
version=1
nRows=29
nColumns=24
inDegrees=yes

Units are S.I. units (second, meters, Newtons, ...)
Angles are in degrees.

endheader
time	pelvis_tilt	pelvis_list	pelvis_rotation	pelvis_tx	pelvis_ty	pelvis_tz	hip_flexion_r	hip_adduction_r	hip_rotation_r	knee_angle_r	ankle_angle_r	subtalar_angle_r	mtp_angle_r	hip_flexion_l	hip_adduction_l	hip_rotation_l	knee_angle_l	ankle_angle_l	subtalar_angle_l	mtp_angle_l	lumbar_extension	lumbar_bending	lumbar_rotation
      1.28400000	      2.37915183	      2.29412114	     -4.76554025	      0.28813621	      1.08307009	      0.33438116	      9.72059089	     -6.77526659	     -5.37765555	    -68.52308278	     -3.86083156	     -5.33500107	      7.94621991	      8.04988573	      5.04291768	      1.61467952	    -17.93818925	      7.98422935	     -0.14965008	      1.15897300	    -14.17002750	     -3.14415453	     -0.00780727
      1.28816667	      2.37528800	      2.12594521	     -4.71601656	      0.29319257	      1.08416269	      0.33417793	     10.23850671	     -6.57364697	     -5.46667839	    -68.35543922	     -3.47671414	     -5.30969377	      7.91392626	      7.54933605	      4.88840259	      1.67375085	    -17.54808819	      8.01190000	     -0.09980377	      1.15832419	    -14.20600878	     -2.90168979	     -0.10699788
      1.29233333	      2.37834028	      1.96822050	     -4.65164648	      0.29824107	      1.08522911	      0.33395526	     10.73590544	     -6.38817734	     -5.57374523	    -68.13722043	     -3.07639501	     -5.16736325	      7.88654825	      7.03634532	      4.74771329	      1.75750783	    -17.14201355	      8.04726663	     -0.05119560	      1.15868460	    -14.24423461	     -2.66867725	     -0.25476901
      1.29650000	      2.40218762	      1.82212388	     -4.57831351	      0.30328981	      1.08630274	      0.33372368	     11.19662085	     -6.22131835	     -5.69565882	    -67.86589049	     -2.67238403	     -4.93072128	      7.84651870	      6.49047067	      4.62330309	      1.86795978	    -16.70923052	      8.09049235	     -0.03239793	      1.16033175	    -14.28828929	     -2.45470600	     -0.48554315
      1.30066667	      2.39788748	      1.67099098	     -4.49667230	      0.30831060	      1.08728606	      0.33348342	     11.67968012	     -6.04162185	     -5.82176575	    -67.55013693	     -2.25701560	     -4.69232288	      7.81725509	      5.98520053	      4.48860414	      1.97225371	    -16.29208113	      8.11230636	     -0.00409758	      1.16269540	    -14.31523929	     -2.22307938	     -0.66293561
      1.30483333	      2.39816243	      1.50369819	     -4.40936715	      0.31330381	      1.08826727	      0.33324663	     12.14206678	     -5.83875965	     -5.95130711	    -67.17383316	     -1.84943627	     -4.42134104	      7.80545121	      5.47822384	      4.33307348	      2.07498657	    -15.88071238	      8.13173180	      0.04134326	      1.16551926	    -14.36587056	     -1.97171469	     -0.80732948
      1.30900000	      2.40375643	      1.36709584	     -4.31711292	      0.31830579	      1.08918785	      0.33300228	     12.59349831	     -5.67892872	     -6.09628667	    -66.76733114	     -1.41450815	     -4.08277378	      7.79887582	      4.95957191	      4.21233078	      2.18597185	    -15.44768713	      8.15097419	      0.06014125	      1.17001015	    -14.38624652	     -1.75847100	     -1.00395521
      1.31316667	      2.39856057	      1.19790856	     -4.21598730	      0.32326743	      1.09008028	      0.33275656	     13.03782842	     -5.47132828	     -6.24053139	    -66.29364526	     -1.00284841	     -3.75090880	      7.80408227	      4.46389565	      4.05066927	      2.29347480	    -15.03797843	      8.16517816	      0.10800043	      1.17410897	    -14.43032903	     -1.50794893	     -1.14201466
      1.31733333	      2.39860441	      1.07610098	     -4.11229623	      0.32824833	      1.09090363	      0.33251037	     13.47494343	     -5.32726218	     -6.39787862	    -65.80065591	     -0.54901402	     -3.36494611	      7.81443220	      3.95167862	      3.94328000	      2.42374541	    -14.59547972	      8.15749224	      0.10030268	      1.18159178	    -14.44536246	     -1.30586750	     -1.38574579
      1.32150000	      2.40118765	      0.93542109	     -4.00708661	      0.33320361	      1.09170193	      0.33226565	     13.89448742	     -5.15831970	     -6.55688598	    -65.25017670	     -0.13411664	     -2.96100375	      7.83309296	      3.44566707	      3.81101709	      2.53661301	    -14.17202907	      8.19083830	      0.13403318	      1.18833423	    -14.47689548	     -1.07701844	     -1.52678315
      1.32566667	      2.39848390	      0.79465444	     -3.89497435	      0.33815429	      1.09245317	      0.33202346	     14.30590945	     -4.98698463	     -6.72225573	    -64.65242743	      0.28967099	     -2.55507962	      7.85802087	      2.94736296	      3.67607962	      2.65507166	    -13.74889531	      8.20641943	      0.16394235	      1.19518863	    -14.50419607	     -0.85274768	     -1.69446449
      1.32983333	      2.38592895	      0.66127366	     -3.78042241	      0.34309831	      1.09312620	      0.33177832	     14.71927400	     -4.82439734	     -6.89135587	    -64.01768152	      0.70839879	     -2.14520621	      7.88838228	      2.46402468	      3.54693442	      2.77349092	    -13.33170714	      8.22439171	      0.18771928	      1.20269512	    -14.51973890	     -0.63528781	     -1.86674888
      1.33400000	      2.37135142	      0.53830705	     -3.66622293	      0.34803603	      1.09374505	      0.33154872	     15.12585155	     -4.67195152	     -7.05993365	    -63.34465877	      1.12341502	     -1.73759037	      7.92301791	      1.98403204	      3.42627820	      2.88977311	    -12.91198621	      8.23962909	      0.20928166	      1.21050571	    -14.53136204	     -0.43178573	     -2.03798249
      1.33816667	      2.33803018	      0.42255670	     -3.55152283	      0.35297810	      1.09427994	      0.33133204	     15.54229094	     -4.52460273	     -7.22884366	    -62.63183926	      1.53098871	     -1.33389074	      7.96035826	      1.52888031	      3.31016416	      3.00825786	    -12.50021833	      8.25941477	      0.22678397	      1.21828449	    -14.51563511	     -0.23451237	     -2.20530057
      1.34233333	      2.30366199	      0.30504162	     -3.43596197	      0.35790948	      1.09476483	      0.33113961	     15.94602550	     -4.36984401	     -7.39513607	    -61.87352676	      1.92442831	     -0.96598156	      7.99256897	      1.08453383	      3.18703567	      3.10504947	    -12.10677216	      8.26811643	      0.26081705	      1.22383511	    -14.50562461	     -0.04861819	     -2.33397966
      1.34650000	      2.28022770	      0.21171374	     -3.32558923	      0.36284141	      1.09518720	      0.33093088	     16.33538819	     -4.25172814	     -7.56661802	    -61.09468438	      2.31852578	     -0.56394336	      8.03538493	      0.61698648	      3.09409817	      3.22863568	    -11.68514241	      8.30923909	      0.26856367	      1.23285925	    -14.49709087	      0.13206421	     -2.53029986
      1.35066667	      2.24952258	      0.11581082	     -3.21437826	      0.36776889	      1.09557088	      0.33074839	     16.71603788	     -4.12324772	     -7.73242897	    -60.26495228	      2.69141209	     -0.20813389	      8.07972226	      0.16501115	      2.99389706	      3.34486204	    -11.27861007	      8.32938759	      0.27238995	      1.24156486	    -14.48458313	      0.30323723	     -2.69923993
      1.35483333	      2.21639112	      0.02993146	     -3.10571264	      0.37269133	      1.09588089	      0.33057893	     17.08990135	     -4.00460928	     -7.89512519	    -59.40243099	      3.05577896	      0.12773884	      8.12449089	     -0.28078644	      2.90200916	      3.45495214	    -10.87714116	      8.35619555	      0.28164567	      1.25036919	    -14.47002167	      0.46387591	     -2.85613702
      1.35900000	      2.16110423	     -0.04633053	     -3.00283546	      0.37762183	      1.09610061	      0.33043748	     17.47811028	     -3.89045951	     -8.04600530	    -58.50616298	      3.41179319	      0.43303170	      8.17660586	     -0.70007679	      2.81742314	      3.56836925	    -10.48054816	      8.37265550	      0.28020575	      1.26064496	    -14.43500493	      0.60952726	     -3.02475292
      1.36316667	      2.10960939	     -0.12880241	     -2.90143393	      0.38255935	      1.09628077	      0.33029915	     17.84463503	     -3.76976709	     -8.20134257	    -57.56112529	      3.72891385	      0.71567311	      8.22053588	     -1.11899444	      2.72375634	      3.65884221	    -10.09622885	      8.42475196	      0.29941398	      1.27016667	    -14.38692971	      0.76132304	     -3.15368208
      1.36733333	      2.06712618	     -0.20139447	     -2.80436043	      0.38748812	      1.09641627	      0.33017577	     18.19055279	     -3.65819376	     -8.34964626	    -56.58317677	      4.03943195	      0.96984602	      8.26136243	     -1.54534953	      2.63934737	      3.74487511	     -9.71469507	      8.47212536	      0.32136947	      1.27907560	    -14.35546929	      0.90200862	     -3.28346797
      1.37150000	      2.01574114	     -0.26063969	     -2.71525273	      0.39241789	      1.09648511	      0.33008680	     18.53555844	     -3.55491899	     -8.48328141	    -55.57047638	      4.33619101	      1.19633800	      8.30165492	     -1.96162885	      2.56755531	      3.83132037	     -9.33338649	      8.51670035	      0.33628632	      1.28766843	    -14.31601766	      1.02203232	     -3.41455867
      1.37566667	      1.93000216	     -0.32112397	     -2.63598302	      0.39735864	      1.09643887	      0.33003283	     18.90511042	     -3.43818574	     -8.59565409	    -54.51944088	      4.61788120	      1.35692275	      8.32636668	     -2.33091944	      2.48888314	      3.88513212	     -8.97598887	      8.55835508	      0.38093565	      1.29283502	    -14.24034864	      1.13837083	     -3.48870208
      1.37983333	      1.87279254	     -0.36223525	     -2.55938098	      0.40228468	      1.09637934	      0.32998150	     19.23304235	     -3.34680953	     -8.70680397	    -53.43764945	      4.88831071	      1.53068389	      8.35285433	     -2.73360517	      2.43330843	      3.95046395	     -8.61045135	      8.61597978	      0.41002450	      1.29883272	    -14.19324327	      1.23468012	     -3.59527486
      1.38400000	      1.82609318	     -0.40072834	     -2.48349157	      0.40721890	      1.09628021	      0.32993226	     19.53385735	     -3.26109613	     -8.82265847	    -52.31900463	      5.12482918	      1.68688053	      8.39468349	     -3.15866654	      2.38159370	      4.05128893	     -8.22450161	      8.68660189	      0.39680522	      1.30899148	    -14.15643890	      1.33364414	     -3.76305530
      1.38816667	      1.72779796	     -0.42076619	     -2.41954088	      0.41216221	      1.09604336	      0.32993303	     19.88185088	     -3.17899095	     -8.90384275	    -51.17063258	      5.36991471	      1.78293917	      8.45445838	     -3.52134217	      2.34574909	      4.14226348	     -7.85176418	      8.72023093	      0.36994798	      1.32268651	    -14.06422308	      1.40499613	     -3.90109243
      1.39233333	      1.65550381	     -0.44549956	     -2.37220639	      0.41709856	      1.09579575	      0.32996704	     20.18540944	     -3.08456914	     -8.96539679	    -49.97766450	      5.58675839	      1.85315268	      8.47434336	     -3.90416347	      2.30223396	      4.15980890	     -7.49966038	      8.78906966	      0.42631078	      1.32816755	    -13.99736612	      1.47129196	     -3.93129162
      1.39650000	      1.57366911	     -0.47128940	     -2.32207647	      0.42204987	      1.09550291	      0.32999883	     20.47726672	     -2.98739653	     -9.02590350	    -48.73680092	      5.77831811	      1.90337574	      8.49493312	     -4.27899329	      2.25700829	      4.19578747	     -7.14503504	      8.86390229	      0.46943453	      1.33419621	    -13.92382606	      1.54245475	     -3.99163314
      1.40066667	      1.47686858	     -0.47214219	     -2.29272401	      0.42700237	      1.09508687	      0.33008436	     20.78621621	     -2.90888186	     -9.06139671	    -47.48978557	      5.97640566	      1.92793348	      8.50885259	     -4.64641911	      2.23776208	      4.21851619	     -6.77163948	      8.94812317	      0.52637019	      1.33907741	    -13.83567579	      1.57197032	     -4.04139627
